<svg version="1.1" xmlns="http://www.w3.org/2000/svg" xmlns:xlink="http://www.w3.org/1999/xlink" x="0px" y="0px" viewBox="0 0 572.8 176" style="enable-background:new 0 0 572.8 176;" xml:space="preserve" width="163" height="50" class="uk-svg">
<style type="text/css">
	.st0{fill:#E63946;}
	.st1{fill:#52586D;}
</style>
<path class="st0" d="M305.2,138.5c0,5,3.2,7.2,8.2,7.2c6.2,0,10.3-4.1,10.3-11.6v-4.2C312.4,129,305.2,131.4,305.2,138.5z
	 M305.2,138.5c0,5,3.2,7.2,8.2,7.2c6.2,0,10.3-4.1,10.3-11.6v-4.2C312.4,129,305.2,131.4,305.2,138.5z M305.2,138.5
	c0,5,3.2,7.2,8.2,7.2c6.2,0,10.3-4.1,10.3-11.6v-4.2C312.4,129,305.2,131.4,305.2,138.5z M361.9,112.5c-6.9,0-13,4.4-13,16.2v2.3
	c0,10.7,6.7,14.7,12.6,14.7v0c7.2,0,12.8-5.6,12.8-16.4C374.4,119.9,370.2,112.5,361.9,112.5L361.9,112.5z M361.9,112.5
	c-6.9,0-13,4.4-13,16.2v2.3c0,10.7,6.7,14.7,12.6,14.7v0c7.2,0,12.8-5.6,12.8-16.4C374.4,119.9,370.2,112.5,361.9,112.5L361.9,112.5
	z M305.2,138.5c0,5,3.2,7.2,8.2,7.2c6.2,0,10.3-4.1,10.3-11.6v-4.2C312.4,129,305.2,131.4,305.2,138.5z M305.2,138.5
	c0,5,3.2,7.2,8.2,7.2c6.2,0,10.3-4.1,10.3-11.6v-4.2C312.4,129,305.2,131.4,305.2,138.5z M361.9,112.5c-6.9,0-13,4.4-13,16.2v2.3
	c0,10.7,6.7,14.7,12.6,14.7v0c7.2,0,12.8-5.6,12.8-16.4C374.4,119.9,370.2,112.5,361.9,112.5L361.9,112.5z M361.9,112.5
	c-6.9,0-13,4.4-13,16.2v2.3c0,10.7,6.7,14.7,12.6,14.7v0c7.2,0,12.8-5.6,12.8-16.4C374.4,119.9,370.2,112.5,361.9,112.5L361.9,112.5
	z M305.2,138.5c0,5,3.2,7.2,8.2,7.2c6.2,0,10.3-4.1,10.3-11.6v-4.2C312.4,129,305.2,131.4,305.2,138.5z M408.7,83.7H283.2
	c-0.3,4.3-3.8,7.6-8.2,7.6c-4.3,0-7.9-3.4-8.2-7.6h-24c-11.6,0-22.1,4.7-29.8,12.4c-7.6,7.6-12.4,18.2-12.4,29.8
	c0,23.2,19,42.2,42.2,42.2h166c11.6,0,22.1-4.7,29.8-12.4c7.6-7.6,12.4-18.2,12.4-29.8C450.9,102.7,431.9,83.7,408.7,83.7
	L408.7,83.7z M264.8,111.7c0,0.2,0,0.3,0,0.5c-0.3,1.6-1.7,2.9-3.4,2.9c-1.5,0-2.7-0.9-3.2-2.2c-0.1-0.2-0.1-0.4-0.2-0.6
	c-0.3-1.1-0.6-2.1-1-3.1c-2.2-5.6-6.7-9-14-9c-11,0-17.8,9.4-17.8,22.6s6.7,22.8,17.3,22.8c8.1,0,14.3-5.8,15.1-14.4
	c0.1-1.1-0.8-1.9-1.8-1.9h-7.9c-1.5,0-2.7-1.2-2.7-2.7c0-1.5,1.2-2.7,2.7-2.7h11.5c2.8,0,5,2.2,5,5v18c0,1.6-1.4,3-3,3
	c-1.6,0-3-1.3-3-3v-6.4l-0.1,0.3c-2.9,6-8.8,10-15.4,10.2h-0.8c-15.7,0-24.4-11.4-24.4-27.7s10.1-28.2,25.4-28.2
	c11.2,0,18,5.2,20.7,12.9v0c0.3,0.9,0.6,1.9,0.8,2.9c0.1,0.3,0.1,0.5,0.2,0.8L264.8,111.7L264.8,111.7z M295.8,110.4
	c0,0.1,0,0.2,0,0.4c-0.2,0.9-0.8,1.7-1.6,2.1c-0.3,0.1-0.6,0.2-1,0.2h-0.1c-6.4,0-11.2,4.2-11.2,13.1v20.2c0,1.9-1.5,3.4-3.4,3.4
	s-3.3-1.5-3.3-3.4v-35.6c0-1.9,1.5-3.4,3.3-3.4s3.4,1.5,3.4,3.4v4.2l2.5-3.7c1.6-2.3,4.2-3.7,7-3.7h0c0.8,0,1.6,0.1,2.3,0.3h0
	c0.2,0.1,0.4,0.2,0.5,0.2v0l0,0c0.7,0.3,1.3,0.9,1.5,1.6c0,0.2,0.1,0.4,0.1,0.6V110.4L295.8,110.4z M327.5,149.8
	c-1.7,0-3.1-1.3-3.3-2.9l-0.4-3c-2,3.9-5.8,6.6-10.1,6.9c-0.8,0.1-1.6,0.1-2.5,0.1c-7.5,0-13.3-4.1-13.3-11.8
	c0-9.3,7-14.2,23.2-14.2h2.7v-1.1c0-1.8,0-3.4-0.2-5c-0.3-3.8-2.5-6.3-8-6.3c-4.7,0-7.4,2.1-8.5,6.1c-0.4,1.5-1.7,2.6-3.3,2.6
	c-2.4,0-4-2.4-3.2-4.7c2.1-5.9,7.6-9.2,14.9-9.2c9.8,0,13.9,4.1,14.6,10.9c0.1,1.6,0.2,3.7,0.2,5.5l0,0v15.5c0,2.2,0.1,4.3,0.3,6.9
	C331,148.1,329.5,149.8,327.5,149.8L327.5,149.8z M361.6,150.8c-0.5,0-0.9,0-1.4-0.1c-3-0.2-5.9-1.4-8.2-3.4c-1.2-1-3-0.2-3,1.4
	v12.9c0,1.8-1.5,3.3-3.3,3.3c-1.8,0-3.3-1.5-3.3-3.3v-49.9c0-1.8,1.5-3.3,3.3-3.3c1.8,0,3.3,1.5,3.3,3.3v3.3l0.1-0.1
	c3.2-4.5,8.3-7.5,13.8-7.6h0.1v0c12.1,0,18.8,9,18.8,21.1C381.7,143.7,372.2,150.8,361.6,150.8L361.6,150.8z M424.8,146.9
	c0,1.8-0.8,3.1-2.7,3.1s-3-1.4-3-3.3v-19.4c0-2.1,0-3.8-0.2-5.9c-0.4-4.8-4.1-8.9-10.5-8.8c-6.5,0.2-11.9,4.8-11.9,18.9v14.8
	c0,1.8-1.5,3.3-3.3,3.3c-1.8,0-3.3-1.5-3.3-3.3v-51c0-1.8,1.5-3.3,3.3-3.3c1.8,0,3.3,1.5,3.3,3.3v20.1l0.1-0.2
	c2.6-4.8,7.5-7.9,12.9-7.9h0.3c11,0.1,14.7,8.4,14.8,12.6l0,0c0,2.1,0.2,7.1,0.2,7.1L424.8,146.9L424.8,146.9z M361.9,112.6
	c-6.9,0-13,4.4-13,16.2v2.3c0,10.7,6.7,14.7,12.6,14.7v0c7.2,0,12.8-5.6,12.8-16.4C374.4,119.9,370.2,112.5,361.9,112.6L361.9,112.6
	z M305.2,138.5c0,5,3.2,7.2,8.2,7.2c6.2,0,10.3-4.1,10.3-11.6v-4.2C312.4,129,305.2,131.4,305.2,138.5z M305.2,138.5
	c0,5,3.2,7.2,8.2,7.2c6.2,0,10.3-4.1,10.3-11.6v-4.2C312.4,129,305.2,131.4,305.2,138.5z M361.9,112.6c-6.9,0-13,4.4-13,16.2v2.3
	c0,10.7,6.7,14.7,12.6,14.7v0c7.2,0,12.8-5.6,12.8-16.4C374.4,119.9,370.2,112.5,361.9,112.6L361.9,112.6z M361.9,112.6
	c-6.9,0-13,4.4-13,16.2v2.3c0,10.7,6.7,14.7,12.6,14.7v0c7.2,0,12.8-5.6,12.8-16.4C374.4,119.9,370.2,112.5,361.9,112.6L361.9,112.6
	z M305.2,138.5c0,5,3.2,7.2,8.2,7.2c6.2,0,10.3-4.1,10.3-11.6v-4.2C312.4,129,305.2,131.4,305.2,138.5z M305.2,138.5
	c0,5,3.2,7.2,8.2,7.2c6.2,0,10.3-4.1,10.3-11.6v-4.2C312.4,129,305.2,131.4,305.2,138.5z M361.9,112.6c-6.9,0-13,4.4-13,16.2v2.3
	c0,10.7,6.7,14.7,12.6,14.7v0c7.2,0,12.8-5.6,12.8-16.4C374.4,119.9,370.2,112.5,361.9,112.6L361.9,112.6z M361.9,112.6
	c-6.9,0-13,4.4-13,16.2v2.3c0,10.7,6.7,14.7,12.6,14.7v0c7.2,0,12.8-5.6,12.8-16.4C374.4,119.9,370.2,112.5,361.9,112.6L361.9,112.6
	z M305.2,138.5c0,5,3.2,7.2,8.2,7.2c6.2,0,10.3-4.1,10.3-11.6v-4.2C312.4,129,305.2,131.4,305.2,138.5z"></path>
<g>
	<path class="st0" d="M146.1,126.9c-4-2.4-8.7-3.9-13.7-3.9c-1.1,0-2.2,0.1-3.3,0.2c-0.4,0.1-0.9,0.1-1.4,0.1
		c-17.3,2.1-34.7-2.1-49.1-11.8c-0.4-0.3-1.1-0.7-1.5-1c0,0,0,0,0,0h0c-1.9-1.1-3.6-2.5-5.1-4l-0.2-0.2c-8.1-8.3-10-21.4-3.8-31.9
		c1.4-2.4,3.2-4.5,5.2-6.3c1-1,2.1-1.8,3.3-2.5c0.1-0.1,0.2-0.1,0.3-0.2c0.6-0.5,1.2-0.9,1.9-1.3c11.4-7.4,24.9-11.8,39.6-11.8
		c1.2,0,2.5,0,3.7,0.1c0.9,0.1,1.8,0.1,2.7,0.2c0.6,0.1,1.2,0.1,1.8,0.2c1,0.1,1.9,0.2,2.9,0.4c1.2,0.2,2.4,0.3,3.6,0.3
		c4.4,0,8.9-1.1,12.8-3.2c4.1-2.2,7.7-5.6,10.2-9.9c7.4-12.6,3.2-28.8-9.4-36.2c-8.3-4.9-18.1-4.7-26-0.5c-4.1,2.2-7.7,5.6-10.2,9.9
		c-0.5,1-1.1,1.9-1.5,2.9c-0.1,0.4-0.3,0.8-0.5,1.2c-11,25.9-36.7,44-66.6,44c-3.2,0-6.3-0.2-9.5-0.6c-0.9-0.1-1.9-0.3-2.7-0.4
		c-5.3-0.5-10.7,0.6-15.4,3.1c-4.1,2.3-7.7,5.6-10.3,10c-3.5,5.8-4.4,12.4-3.2,18.6c0.1,0.6,0.2,1.1,0.4,1.7v0
		C1,94.6,1.1,95,1.3,95.5c0.7,2.3,1.7,4.4,3,6.4c0.3,0.5,0.6,1,1,1.4c0.3,0.5,0.7,0.9,1.1,1.4c0,0,0,0.1,0.1,0.1
		c0.5,0.5,1,1.1,1.5,1.6c1.4,1.5,3.1,2.7,4.8,3.8c4,2.5,8.7,3.9,13.8,4c0.4,0,0.7,0,1.1,0c0.8,0,1.7-0.1,2.5-0.1
		c0.4-0.1,0.7-0.2,1.1-0.2c0.6-0.1,1.2-0.3,1.8-0.4c27.4-2.7,55.1,10.5,69.7,35.9c0.6,1.1,1.2,2.2,1.8,3.3c0.4,0.8,0.8,1.6,1.2,2.4
		c0.3,0.5,0.5,1.1,0.7,1.6c0.4,0.9,0.8,1.8,1.1,2.7c0.5,1.1,1,2.2,1.5,3.3c2.2,3.8,5.3,7.1,9.2,9.5c4,2.4,8.6,3.8,13.7,3.9
		c14.6,0.1,26.6-11.6,26.7-26.3l0.1,0C158.7,140.1,153.7,131.6,146.1,126.9L146.1,126.9z M132.3,12.3c8.3,0,15.1,6.8,15.1,15.1
		s-6.7,15.1-15.1,15.1s-15.1-6.7-15.1-15.1S124,12.3,132.3,12.3L132.3,12.3z M27.6,102.5c-8.3,0-15.1-6.7-15.1-15.1
		s6.8-15.1,15.1-15.1s15.1,6.8,15.1,15.1S36,102.5,27.6,102.5z M132.3,164.9c-8.1,0-14.7-6.6-14.7-14.7c0-8.2,6.6-14.7,14.7-14.7
		S147,142,147,150.1C147,158.3,140.4,164.9,132.3,164.9z"></path>
	<path class="st0" d="M143.5,27.2L143.5,27.2c0,1.4-1.1,2.4-2.3,2.4h-6.4v6.5c0,1.3-1.1,2.3-2.3,2.3s-2.3-1.1-2.3-2.3v-6.5h-6.5
		c-1.3,0.1-2.4-0.8-2.6-2.1s0.8-2.4,2.1-2.6h6.9v-6.5c0.1-1.3,1.2-2.3,2.5-2.1c1.1,0.1,2.1,1,2.1,2.1v6.5h6.5
		C142.5,24.9,143.5,25.9,143.5,27.2L143.5,27.2z"></path>
</g>
<g>
	<path class="st1" d="M264.9,41.7c0-16.1-13-29-29-29c-16,0-29,13-29,29v1.6c0.3,15.8,13.3,28.3,29.1,28.1l0,0c0.5,0,1,0,1.5,0
		C253.2,70.7,265.5,57.5,264.9,41.7z M235.9,63.8c-13.3,0-20.8-10.4-20.8-22.2c0-11.7,7.5-22.1,20.8-22.1l0,0
		c13.2,0,20.7,10.6,20.7,22.3S249.3,63.8,235.9,63.8z"></path>
	<path class="st1" d="M310,51.7L310,51.7c0-0.1,0-0.3,0-0.4c0.4-10.3-7.6-18.9-17.9-19.3c-5.6,0-10.8,2.9-13.6,7.7v-3.2
		c0-2.2-1.8-3.9-3.9-3.9H274c-2,0.3-3.4,1.9-3.4,3.9v46.7c0,0.1,0,0.2,0,0.3c0.1,2.1,1.8,3.7,3.9,3.7h0.4c2.1,0,3.8-1.6,3.9-3.7
		c0-0.1,0-0.2,0-0.3V63.9c2.8,4.6,7.8,7.4,13.1,7.4h0.1c0.3,0,0.7,0,1,0C303.2,70.5,310.7,61.7,310,51.7z M290.4,64.6
		c-0.1,0-0.2,0-0.3,0c-6.7-0.5-11.7-6.2-11.2-12.9c0-0.1,0-0.2,0-0.3c-0.3-6.7,4.8-12.2,11.5-12.4c6.9,0,11.6,5,11.6,12.7
		C301.8,59.4,297.3,64.6,290.4,64.6z"></path>
	<path class="st1" d="M332.5,32L332.5,32l-1.3,0c-10.4,0.4-18.5,9.3-18.1,19.7c-0.1,0.8-0.1,1.5,0,2.3c0.6,10.2,9.4,18,19.7,17.4
		c5.8,0.1,11.4-2.1,15.4-6.2c0.6-0.6,1-1.4,1-2.3v-0.2c0-1.8-1.5-3.2-3.3-3.1c-1,0.1-2,0.5-2.6,1.3c-2.6,2.7-6.2,4.2-9.9,4.1
		c-0.3,0-0.5,0.1-0.8,0.1c-5.9,0.2-10.9-4.5-11-10.4h25.6c2.3,0,3.1-1.4,3.1-2.8h0.1C350.3,40.7,343.3,32,332.5,32z M321.7,48.1
		c0.6-5.4,5.3-9.6,10.8-9.6c5.4,0.1,9.9,4.2,10.4,9.6H321.7z"></path>
	<path class="st1" d="M390.9,49.3v17.7c0,2.2-1.8,4.1-4.1,4.1s-4.1-1.8-4.1-4.1V49.1c-0.7-5.4-5.6-9.3-11.1-8.6
		c-4.5,0.6-8,4.1-8.6,8.6v18c0.1,2.2-1.6,4-3.7,4.1c-2.2,0.1-4-1.6-4.1-3.7V50c-0.2-9.6,7.2-17.6,16.8-18h0.8
		C382.7,31.8,390.7,39.5,390.9,49.3z"></path>
	<path class="st1" d="M451.2,64.1l-21.9-48.8c-0.7-1.8-2.5-2.9-4.4-2.8c-1.9-0.1-3.7,1-4.5,2.8l-22,49c-0.3,0.6-0.5,1.3-0.5,2
		c0.1,2.7,2.3,4.8,4.9,4.8c1.9,0,3.6-1.1,4.4-2.9l4.9-10.5h25.6l4.8,10.4c0.7,1.7,2.4,2.8,4.2,2.8h0.2c2.7,0,4.8-2.2,4.8-4.8
		C451.7,65.5,451.5,64.7,451.2,64.1z M415.8,48.6l9-21.8l8.9,21.8H415.8z"></path>
	<path class="st1" d="M464.5,13.9c0.9,1,1.5,2.2,1.5,3.7v48c0.2,2.8-1.9,5.3-4.8,5.5l-0.3,0v0c-2.9,0-5.3-2.4-5.4-5.3V17.9
		c-0.1-3,2.3-5.5,5.3-5.6C462.3,12.3,463.5,12.9,464.5,13.9z"></path>
	<path class="st1" d="M513.6,45.8L513.6,45.8c6-2.6,9.8-8.7,9.4-15.3c0-10.1-6.1-17.2-20.3-17.2h-22.2c-2.9,0.1-5.1,2.4-5.1,5.3
		v47.2c0.2,2.6,2.2,4.6,4.8,4.8c2.9,0.2,5.5-1.9,5.7-4.8V47.7h17.2l10,20.5c0.8,1.7,2.5,2.9,4.3,2.9c0.1,0,0.2,0,0.3,0
		c2.9,0,5.2-2.4,5.2-5.2l0-0.1c0-0.8-0.2-1.6-0.6-2.2L513.6,45.8z M504.2,37.5h-18.3V21.7h18.3c0.3,0,0.6,0,0.8,0
		c4.1,0.1,7.4,3.5,7.3,7.6c0,0.3,0,0.5,0,0.8h0C512.1,34.4,508.5,37.6,504.2,37.5z"></path>
	<path class="st1" d="M572.8,65.5c0,1.3-0.5,2.5-1.4,3.4c-0.9,0.9-2.1,1.4-3.4,1.4h0l-0.1,0.1l0,0h-32.2c-2.9,0.1-5.3-2.2-5.4-5.1
		V18.5c0-2.9,2.4-5.2,5.3-5.2h30.9c2.6,0,4.8,2.1,4.9,4.7c0,1.3-0.6,2.6-1.5,3.4c-0.9,0.9-2.1,1.4-3.5,1.4h-25.7v13.6h21.7
		c2.7-0.1,5,1.9,5.1,4.5c0.2,2.7-1.9,5-4.5,5.1h-22.3v14.5h27.1C570.5,60.6,572.8,62.8,572.8,65.5z"></path>
</g>
</svg>